<svg width="41" height="43" viewBox="0 0 41 43" fill="none" xmlns="http://www.w3.org/2000/svg">
<path d="M38.6386 20.7754H17.0069C16.9512 20.781 16.8899 20.7754 16.8286 20.7754H2.82544C2.55797 20.7754 2.36852 20.9927 2.43538 21.2156L3.64457 25.2165C3.64457 25.2165 4.01234 26.3978 4.0402 26.4368L8.6262 40.4456C9.10542 41.9167 10.6545 42.9252 12.4154 42.9252H29.0487C30.8095 42.9252 32.3586 41.9111 32.8378 40.4456L37.4183 26.4368C37.4461 26.4034 39.0231 21.2212 39.0231 21.2212C39.0899 20.9983 38.8949 20.781 38.633 20.781M18.9461 25.7682C18.9461 25.6734 18.9684 25.5731 19.0185 25.4895C19.0241 25.4728 19.0352 25.4617 19.0464 25.4505C19.0575 25.4394 19.0687 25.4227 19.0798 25.4115C19.1133 25.3725 19.1523 25.3447 19.1968 25.3168C19.2359 25.2945 19.2749 25.2778 19.3139 25.2667C19.325 25.2667 19.3417 25.2611 19.3529 25.2555C19.3863 25.2499 19.4142 25.2444 19.4476 25.2444C19.5758 25.2444 19.7039 25.2945 19.8042 25.3892C19.8098 25.3948 19.8209 25.406 19.8265 25.4115C19.8488 25.4338 19.8711 25.4673 19.8878 25.4951C19.8934 25.5118 19.9045 25.523 19.9101 25.5397C19.9157 25.5564 19.9212 25.5731 19.9268 25.5843C19.9435 25.6289 19.9491 25.679 19.9547 25.7292C19.9547 25.7793 19.9547 25.8295 19.938 25.8796C19.9268 25.9186 19.9101 25.9576 19.8934 25.9911C19.8488 26.0691 19.7875 26.1359 19.7039 26.1861C19.6705 26.2028 19.6371 26.2195 19.6036 26.2307C19.6036 26.2307 19.5813 26.2362 19.5702 26.2418C19.5702 26.2418 19.5646 26.2418 19.559 26.2418C19.5423 26.2418 19.5312 26.2474 19.5145 26.253C19.5033 26.253 19.4866 26.253 19.4755 26.253H19.4643C19.4643 26.253 19.4643 26.253 19.4587 26.253C19.4476 26.253 19.4365 26.253 19.4253 26.253C19.4253 26.253 19.4253 26.253 19.4197 26.253C19.4086 26.253 19.3919 26.253 19.3807 26.253C19.3807 26.253 19.3752 26.253 19.3696 26.253H19.3306V26.2418C19.325 26.2418 19.3139 26.2418 19.3083 26.2362C19.1968 26.1972 19.0965 26.1192 19.0297 26.0078C19.0297 26.0078 19.0297 26.0078 19.0297 26.0022C19.0241 25.9911 19.013 25.9743 19.0074 25.9632C19.0074 25.9632 19.0074 25.9576 19.0074 25.952C18.9962 25.9186 18.9851 25.8852 18.9795 25.8517C18.9795 25.8295 18.974 25.8016 18.9684 25.7793L18.9461 25.7682ZM18.5616 26.4201C18.5616 26.4201 18.5727 26.4034 18.5783 26.3978C18.5783 26.3923 18.5895 26.3811 18.595 26.3755C18.595 26.3755 18.595 26.3755 18.6006 26.37C18.6006 26.37 18.6006 26.37 18.6062 26.37C18.6062 26.37 18.6062 26.37 18.6118 26.37C18.6118 26.37 18.6229 26.3644 18.6285 26.3588C18.6285 26.3588 18.634 26.3588 18.6396 26.3533C18.6508 26.3533 18.6563 26.3421 18.6675 26.3421C18.6675 26.3421 18.6675 26.3421 18.673 26.3421C18.6842 26.3421 18.6898 26.3365 18.7009 26.331C18.7176 26.331 18.7288 26.331 18.7455 26.331C18.7566 26.331 18.7622 26.331 18.7678 26.331C18.8179 26.331 18.8625 26.3588 18.9015 26.3923L19.0743 26.565L19.442 26.9272L19.8042 26.565L19.9825 26.3867C20.0215 26.3477 20.0773 26.3254 20.1274 26.3254H20.1497C20.1497 26.3254 20.1553 26.3254 20.1609 26.3254C20.1609 26.3254 20.1664 26.3254 20.172 26.3254C20.172 26.3254 20.1776 26.3254 20.1831 26.3254C20.1831 26.3254 20.1887 26.3254 20.1943 26.3254C20.1943 26.3254 20.1999 26.3254 20.2054 26.3254H20.2166C20.2166 26.3254 20.2221 26.3254 20.2277 26.3254C20.2277 26.3254 20.2333 26.3254 20.2389 26.3254C20.2389 26.3254 20.2444 26.3254 20.25 26.3254C20.25 26.3254 20.2556 26.3254 20.2612 26.331C20.2612 26.331 20.2667 26.331 20.2723 26.3365C20.2723 26.3365 20.2779 26.3365 20.2834 26.3421C20.2834 26.3421 20.289 26.3421 20.289 26.3477C20.289 26.3477 20.2946 26.3533 20.3002 26.3588C20.3002 26.3588 20.3002 26.3588 20.3057 26.3588C20.3113 26.3644 20.3224 26.3755 20.328 26.3811C20.328 26.3811 20.328 26.3811 20.328 26.3867C20.328 26.3867 20.3392 26.4034 20.3447 26.409C20.3447 26.409 20.3447 26.4145 20.3447 26.4201C20.3447 26.4257 20.3503 26.4368 20.3559 26.4424C20.3559 26.4536 20.3559 26.4591 20.3615 26.4703C20.3615 26.487 20.3615 26.4981 20.3615 26.5148C20.3615 26.565 20.3447 26.6151 20.3113 26.6542C20.3113 26.6597 20.3002 26.6653 20.2946 26.6709L19.598 27.3618C19.598 27.3618 19.5646 27.3897 19.5423 27.4008C19.52 27.412 19.5033 27.4176 19.481 27.4231C19.4755 27.4231 19.4699 27.4231 19.4587 27.4231C19.4532 27.4231 19.4476 27.4231 19.4365 27.4231C19.4197 27.4231 19.4086 27.4231 19.3919 27.4231C19.3863 27.4231 19.3807 27.4231 19.3696 27.4176C19.3417 27.412 19.3139 27.3953 19.2916 27.3786C19.286 27.3786 19.2804 27.3674 19.2749 27.3618L18.5783 26.6709C18.5783 26.6709 18.556 26.6486 18.5505 26.6374C18.5003 26.565 18.5003 26.4703 18.5505 26.3978M17.5753 29.0781C17.5753 29.0781 17.5753 29.0558 17.5753 29.0447C17.5753 29.0447 17.5753 29.0447 17.5753 29.0391C17.5753 29.0335 17.5753 29.0224 17.5753 29.0168C17.5753 29.0168 17.5753 29.0168 17.5753 29.0112C17.5753 29.0001 17.5753 28.9945 17.5809 28.9834C17.5809 28.9778 17.5865 28.9667 17.592 28.9611C17.592 28.9611 17.592 28.9611 17.592 28.9555C17.592 28.9499 17.5976 28.9388 17.6032 28.9332C17.6087 28.9276 17.6143 28.9165 17.6199 28.9109C17.6199 28.9109 17.6199 28.9109 17.6199 28.9054C17.6199 28.8998 17.631 28.8942 17.6366 28.8886C17.6422 28.8831 17.6533 28.8775 17.6589 28.8719C17.6645 28.8719 17.67 28.8608 17.6756 28.8608C17.6756 28.8608 17.6756 28.8608 17.6812 28.8608C17.6868 28.8608 17.6979 28.8496 17.709 28.8496C17.7146 28.8496 17.7258 28.8441 17.7313 28.8385C17.7313 28.8385 17.7313 28.8385 17.7369 28.8385C17.7425 28.8385 17.7536 28.8329 17.7592 28.8329C17.7703 28.8329 17.7759 28.8329 17.7871 28.8329H17.7926C17.7926 28.8329 17.8093 28.8329 17.8149 28.8329H17.8205C17.8205 28.8329 17.8316 28.8329 17.8372 28.8329H17.8428C17.8428 28.8329 17.8595 28.8329 17.8651 28.8329C17.8706 28.8329 17.8762 28.8329 17.8874 28.8329C17.8874 28.8329 17.8874 28.8329 17.8929 28.8329C17.8985 28.8329 17.9041 28.8329 17.9096 28.8385C17.9096 28.8385 17.9152 28.8385 17.9208 28.8385C17.9208 28.8385 17.9319 28.8385 17.9375 28.8441C17.9375 28.8441 17.9431 28.8441 17.9487 28.8496C17.9487 28.8496 17.9598 28.8496 17.9598 28.8552H17.9709C17.9709 28.8552 17.9821 28.8719 17.9877 28.8719C17.9877 28.8719 17.9877 28.8719 17.9932 28.8719C17.9988 28.8775 18.0099 28.8831 18.0155 28.8942L18.8012 29.7133L18.9851 29.9084C18.9517 30.0533 18.8848 30.1758 18.7901 30.2817C18.7789 30.2984 18.7622 30.3096 18.7455 30.3263C18.7455 30.3263 18.7399 30.3319 18.7343 30.3319C18.7176 30.343 18.7009 30.3597 18.6898 30.3709C18.6898 30.3709 18.6898 30.3709 18.6842 30.3764C18.6675 30.3876 18.6508 30.3987 18.6396 30.4099C18.6396 30.4099 18.6396 30.4099 18.634 30.4099C18.6173 30.421 18.6006 30.4322 18.5839 30.4377C18.5839 30.4377 18.5783 30.4377 18.5728 30.4433C18.556 30.4545 18.5393 30.46 18.517 30.4712C18.517 30.4712 18.517 30.4712 18.5115 30.4712C18.4947 30.4767 18.478 30.4879 18.4613 30.4935C18.4613 30.4935 18.4557 30.4935 18.4502 30.4935C18.4334 30.499 18.4112 30.5046 18.3944 30.5102C18.3944 30.5102 18.3889 30.5102 18.3833 30.5102C18.244 30.5436 18.088 30.5436 17.9375 30.499L17.5474 29.1505C17.5474 29.1505 17.5419 29.1283 17.5419 29.1171C17.5419 29.1171 17.5419 29.1115 17.5419 29.106C17.5419 29.0948 17.5419 29.0892 17.5419 29.0781H17.5753ZM14.9953 28.6379C14.9675 28.5432 15.0121 28.4429 15.0956 28.3927C15.1124 28.3816 15.1346 28.3704 15.1569 28.3648C15.1792 28.3648 15.1959 28.3593 15.2127 28.3593C15.2628 28.3593 15.3074 28.376 15.3464 28.4039C15.3575 28.4094 15.3631 28.4206 15.3743 28.4261C15.3798 28.4317 15.3854 28.4429 15.391 28.4484C15.4077 28.4707 15.4188 28.4986 15.4244 28.5264L15.5916 29.1673L15.6752 29.4793C15.6752 29.4793 15.6807 29.5072 15.6807 29.5239V29.5462C15.6807 29.5462 15.6807 29.574 15.6752 29.5908C15.664 29.6409 15.6361 29.6799 15.5971 29.7133C15.586 29.7189 15.5804 29.7245 15.5693 29.7301C15.5693 29.7301 15.5581 29.7356 15.5526 29.7412C15.5414 29.7412 15.5358 29.7468 15.5247 29.7523C15.5247 29.7523 15.5247 29.7523 15.5191 29.7523L14.5718 30.0142C14.5718 30.0142 14.5551 30.0142 14.544 30.0142C14.544 30.0142 14.5384 30.0142 14.5328 30.0142C14.5273 30.0142 14.5217 30.0142 14.5161 30.0142H14.5105C14.5105 30.0142 14.4883 30.0142 14.4771 30.0142C14.4771 30.0142 14.4771 30.0142 14.4715 30.0142C14.4604 30.0142 14.4493 30.0142 14.4381 30.0087C14.427 30.0087 14.4214 30.0031 14.4102 29.9975C14.3991 29.9975 14.3935 29.9864 14.3824 29.9808C14.3657 29.9697 14.3489 29.953 14.3378 29.9362C14.3322 29.9251 14.3267 29.9195 14.3211 29.9084C14.3211 29.8972 14.3099 29.8861 14.3099 29.8749C14.3044 29.8526 14.2988 29.8304 14.3044 29.8081C14.3044 29.7914 14.3044 29.7691 14.3155 29.7523V29.7412C14.3155 29.7301 14.3211 29.7189 14.3267 29.7133C14.3545 29.6632 14.4047 29.6186 14.466 29.6019L14.778 29.5183L15.2015 29.4013L15.0065 28.6658L14.9953 28.6379ZM13.6858 28.6936C13.6914 28.6602 13.7026 28.6323 13.7137 28.5989C13.7917 28.4206 13.97 28.2924 14.1762 28.2924C14.3824 28.2924 14.5663 28.4206 14.6387 28.5989C14.6499 28.6267 14.661 28.6602 14.6666 28.6936C14.6721 28.727 14.6777 28.7605 14.6777 28.7939C14.6777 28.8831 14.6554 28.9611 14.6164 29.0335C14.6108 29.0447 14.5997 29.0614 14.5886 29.0781C14.4994 29.2118 14.3434 29.301 14.1706 29.301C13.9979 29.301 13.8419 29.2118 13.7527 29.0781C13.7416 29.0614 13.736 29.0502 13.7304 29.0335C13.6914 28.9611 13.6691 28.8775 13.6691 28.7939C13.6691 28.7605 13.6691 28.727 13.6803 28.6936M14.6777 34.9736C14.6721 35.007 14.661 35.0349 14.6499 35.0683C14.5718 35.2466 14.3935 35.3748 14.1874 35.3748C13.9812 35.3748 13.7973 35.2466 13.7249 35.0683C13.7137 35.0349 13.7026 35.007 13.697 34.9736C13.6914 34.9401 13.6858 34.9067 13.6858 34.8733C13.6858 34.7897 13.7081 34.7061 13.7471 34.6337C13.7527 34.617 13.7639 34.6058 13.7694 34.5891C13.8586 34.4554 14.0146 34.3662 14.1874 34.3662C14.3601 34.3662 14.5105 34.4554 14.6053 34.5891C14.6164 34.6002 14.622 34.617 14.6331 34.6337C14.6721 34.7061 14.6944 34.7897 14.6944 34.8733C14.6944 34.9067 14.6944 34.9401 14.6833 34.9736M15.6807 34.1489C15.6807 34.1489 15.6807 34.1767 15.6752 34.1935L15.5971 34.5055L15.43 35.1463C15.4244 35.1742 15.4077 35.202 15.3965 35.2243L15.3798 35.2466C15.3798 35.2466 15.3631 35.2633 15.352 35.2689C15.313 35.2968 15.2684 35.3135 15.2182 35.3135C15.2015 35.3135 15.1792 35.3135 15.1625 35.3023C15.1402 35.2968 15.1179 35.2856 15.1012 35.2745C15.0176 35.2243 14.9786 35.124 15.0009 35.0293L15.1959 34.2938L14.7724 34.1767L14.4604 34.0932C14.3991 34.0764 14.3489 34.0374 14.3211 33.9817C14.3211 33.9761 14.3099 33.965 14.3099 33.9539V33.9427C14.3099 33.926 14.3044 33.9037 14.2988 33.887C14.2988 33.8647 14.2988 33.8424 14.3044 33.8201C14.3044 33.809 14.3099 33.7978 14.3155 33.7867C14.3155 33.7867 14.3155 33.7867 14.3155 33.7811C14.3155 33.77 14.3267 33.7644 14.3322 33.7533C14.3434 33.7365 14.3601 33.7198 14.3768 33.7087C14.3824 33.7031 14.3935 33.6975 14.4047 33.692C14.4158 33.692 14.427 33.6808 14.4325 33.6808C14.4325 33.6808 14.4548 33.6752 14.4604 33.6697C14.4604 33.6697 14.4604 33.6697 14.466 33.6697C14.4771 33.6697 14.4883 33.6697 14.4994 33.6697H14.505C14.505 33.6697 14.5161 33.6697 14.5217 33.6697C14.5217 33.6697 14.5217 33.6697 14.5328 33.6697C14.544 33.6697 14.5496 33.6697 14.5607 33.6752L15.508 33.9371C15.508 33.9371 15.508 33.9371 15.5136 33.9371C15.5247 33.9371 15.5303 33.9427 15.5414 33.9483C15.547 33.9483 15.5581 33.9539 15.5637 33.9594C15.5749 33.965 15.5804 33.9706 15.5916 33.9817C15.6306 34.0096 15.6584 34.0542 15.6696 34.1043C15.6696 34.1155 15.6696 34.1322 15.6752 34.1489V34.1712L15.6807 34.1489ZM17.8261 34.8733C17.8261 34.8733 17.8093 34.8733 17.7982 34.8733C17.7871 34.8733 17.7815 34.8733 17.7759 34.8677C17.7759 34.8677 17.7759 34.8677 17.7703 34.8677C17.7592 34.8677 17.7536 34.8621 17.748 34.8566C17.748 34.8566 17.7313 34.8454 17.7258 34.8454C17.7258 34.8454 17.7258 34.8454 17.7202 34.8454C17.7146 34.8454 17.709 34.8343 17.7035 34.8287C17.6979 34.8231 17.6868 34.8176 17.6812 34.812C17.6812 34.8064 17.67 34.8008 17.6645 34.7953C17.6645 34.7953 17.6645 34.7953 17.6645 34.7897C17.6589 34.7841 17.6533 34.773 17.6477 34.7674C17.6477 34.7618 17.6366 34.7507 17.6366 34.7451C17.6366 34.7451 17.6366 34.7451 17.6366 34.7395C17.6366 34.734 17.631 34.7228 17.6255 34.7173C17.6255 34.7061 17.6199 34.7005 17.6143 34.6894C17.6143 34.6894 17.6143 34.6894 17.6143 34.6838C17.6143 34.6727 17.6143 34.6671 17.6143 34.6615C17.6143 34.6615 17.6143 34.6615 17.6143 34.656C17.6143 34.6448 17.6143 34.6337 17.6143 34.6281C17.6143 34.6281 17.6143 34.6281 17.6143 34.6225C17.6143 34.6114 17.6143 34.6058 17.6143 34.5947C17.6143 34.5947 17.6143 34.5891 17.6143 34.5835C17.6143 34.5724 17.6143 34.5612 17.6199 34.5501L18.0099 33.2016C18.1604 33.157 18.3109 33.157 18.4557 33.1905C18.4557 33.1905 18.4613 33.1905 18.4669 33.1905C18.4836 33.1905 18.5059 33.2016 18.5226 33.2072C18.5226 33.2072 18.5282 33.2072 18.5337 33.2072C18.5505 33.2127 18.5672 33.2183 18.5839 33.2295C18.5839 33.2295 18.5839 33.2295 18.5895 33.2295C18.6062 33.235 18.6229 33.2462 18.6452 33.2573H18.6563C18.6563 33.2573 18.6898 33.2852 18.7065 33.2963C18.7065 33.2963 18.7065 33.2963 18.7121 33.2963C18.7288 33.3075 18.7455 33.3186 18.7566 33.3298C18.7566 33.3298 18.7566 33.3298 18.7622 33.3353C18.7789 33.3465 18.7956 33.3576 18.8068 33.3743L18.8179 33.3855C18.8179 33.3855 18.8458 33.4133 18.8625 33.4301C18.9517 33.5304 19.0241 33.6585 19.0575 33.8034L18.8737 33.9984L18.088 34.8176C18.088 34.8176 18.0712 34.8343 18.0657 34.8398C18.0657 34.8398 18.0657 34.8398 18.0601 34.8454L18.0434 34.8566C18.0434 34.8566 18.0378 34.8566 18.0322 34.8566C18.0322 34.8566 18.0211 34.8621 18.0155 34.8677C18.0155 34.8677 18.0099 34.8677 18.0044 34.8677C18.0044 34.8677 17.9932 34.8677 17.9877 34.8733C17.9877 34.8733 17.9821 34.8733 17.9765 34.8733C17.9709 34.8733 17.9654 34.8733 17.9598 34.8789C17.9598 34.8789 17.9542 34.8789 17.9487 34.8789C17.9431 34.8789 17.9375 34.8789 17.9264 34.8789C17.9208 34.8789 17.9096 34.8789 17.9041 34.8789C17.9041 34.8789 17.9041 34.8789 17.8985 34.8789H17.8706C17.8706 34.8789 17.8539 34.8789 17.8483 34.8789C17.8483 34.8789 17.8484 34.8789 17.8428 34.8789M19.9268 38.0773C19.9268 38.0773 19.9157 38.1108 19.9101 38.1219C19.9045 38.1386 19.8934 38.1498 19.8878 38.1665C19.8711 38.1944 19.8488 38.2222 19.8265 38.2501C19.8209 38.2612 19.8098 38.2668 19.8042 38.2724C19.7095 38.3671 19.5813 38.4173 19.4476 38.4173C19.4142 38.4173 19.3863 38.4173 19.3529 38.4061C19.3362 38.4061 19.325 38.4005 19.3139 38.395C19.2749 38.3838 19.2359 38.3671 19.1968 38.3448C19.1523 38.317 19.1133 38.2835 19.0798 38.2501C19.0687 38.2389 19.0575 38.2278 19.0464 38.2111C19.0352 38.1944 19.0241 38.1832 19.0185 38.1721C18.9684 38.0885 18.9405 37.9938 18.9461 37.8935C18.9461 37.86 18.9461 37.8377 18.9572 37.8099C18.9628 37.7764 18.974 37.743 18.9907 37.7096C18.9907 37.7096 18.9907 37.704 18.9907 37.6984C18.9962 37.6873 19.0018 37.6706 19.013 37.6594C19.0798 37.5424 19.1801 37.4644 19.2916 37.4254C19.2916 37.4254 19.3083 37.4254 19.3139 37.4198C19.325 37.4198 19.3417 37.4142 19.3529 37.4087C19.3529 37.4087 19.3584 37.4087 19.364 37.4087C19.3752 37.4087 19.3863 37.4087 19.403 37.4087C19.403 37.4087 19.403 37.4087 19.4086 37.4087C19.4197 37.4087 19.4309 37.4087 19.442 37.4087H19.4587C19.4587 37.4087 19.4866 37.4087 19.4977 37.4087C19.4977 37.4087 19.5256 37.4087 19.5423 37.4142C19.5423 37.4142 19.5479 37.4142 19.5535 37.4142C19.5646 37.4142 19.5758 37.4142 19.5925 37.4254C19.6259 37.4365 19.6593 37.4533 19.6928 37.47C19.7764 37.5145 19.8377 37.5814 19.8822 37.665C19.9045 37.6984 19.9157 37.7374 19.9268 37.782C19.938 37.8322 19.9435 37.8767 19.9435 37.9269C19.9435 37.977 19.9324 38.0216 19.9157 38.0718M20.367 37.1691C20.367 37.1691 20.367 37.1858 20.3615 37.1969C20.3615 37.1969 20.3559 37.2136 20.3503 37.2192C20.3503 37.2248 20.3503 37.2304 20.3392 37.2359C20.3392 37.2415 20.3336 37.2471 20.328 37.2526C20.328 37.2526 20.328 37.2526 20.328 37.2582C20.3224 37.2694 20.3169 37.2749 20.3057 37.2805C20.3057 37.2805 20.3057 37.2805 20.3002 37.2861C20.3002 37.2861 20.2946 37.2917 20.289 37.2972C20.289 37.2972 20.2834 37.2972 20.2779 37.2972C20.2779 37.2972 20.2723 37.2972 20.2667 37.3028C20.2667 37.3028 20.2612 37.3028 20.2556 37.3028C20.2556 37.3028 20.25 37.3028 20.2444 37.3084C20.2444 37.3084 20.2389 37.3084 20.2333 37.3084C20.2333 37.3084 20.2277 37.3084 20.2221 37.3084C20.2221 37.3084 20.2166 37.3084 20.211 37.3084C20.211 37.3084 20.2054 37.3084 20.1999 37.3084H20.1943C20.1943 37.3084 20.1887 37.3084 20.1831 37.3084C20.1831 37.3084 20.1776 37.3084 20.172 37.3084C20.172 37.3084 20.1664 37.3084 20.1609 37.3084C20.1609 37.3084 20.1553 37.3084 20.1497 37.3084H20.1274C20.0717 37.3084 20.0215 37.2861 19.9825 37.2415L19.8042 37.0688L19.442 36.7066L19.0743 37.0688L18.9015 37.2415C18.8625 37.2805 18.8179 37.2972 18.7678 37.3028C18.7622 37.3028 18.7511 37.3028 18.7455 37.3028C18.7288 37.3028 18.7176 37.3028 18.7009 37.3028C18.6898 37.3028 18.6842 37.3028 18.673 37.2972C18.673 37.2972 18.673 37.2972 18.6675 37.2972C18.6619 37.2972 18.6508 37.2917 18.6396 37.2861C18.6396 37.2861 18.634 37.2861 18.6285 37.2805C18.6285 37.2805 18.6173 37.2749 18.6118 37.2694C18.6118 37.2694 18.6118 37.2694 18.6062 37.2694C18.6062 37.2694 18.6062 37.2694 18.6006 37.2638C18.6006 37.2638 18.595 37.2638 18.5895 37.2582C18.5839 37.2526 18.5783 37.2471 18.5728 37.2359C18.5728 37.2304 18.5616 37.2248 18.556 37.2136C18.5115 37.1412 18.5115 37.0465 18.556 36.974C18.5672 36.9629 18.5727 36.9517 18.5839 36.9406L19.2804 36.2496C19.2804 36.2496 19.2916 36.2385 19.2971 36.2329C19.3194 36.2106 19.3473 36.1995 19.3752 36.1939C19.3807 36.1939 19.3919 36.1939 19.3974 36.1939C19.4086 36.1939 19.4253 36.1939 19.442 36.1939C19.4476 36.1939 19.4587 36.1939 19.4643 36.1939C19.4699 36.1939 19.4755 36.1939 19.4866 36.1939C19.5089 36.1939 19.5256 36.2051 19.5479 36.2162C19.5702 36.2273 19.5869 36.2385 19.6036 36.2552L20.3002 36.9462C20.3002 36.9462 20.3113 36.9573 20.3169 36.9629C20.3503 37.0019 20.367 37.052 20.367 37.1022C20.367 37.1189 20.367 37.1301 20.367 37.1468M21.0468 36.1883C21.0468 36.2218 21.0357 36.2496 21.019 36.2775C21.019 36.2831 21.0078 36.2942 21.0023 36.2998C20.9967 36.3109 20.9911 36.3165 20.98 36.3221C20.9744 36.3221 20.9688 36.3332 20.9633 36.3388C20.9633 36.3388 20.9633 36.3388 20.9577 36.3388C20.9577 36.3388 20.9521 36.3444 20.9465 36.3499C20.9465 36.3499 20.9465 36.3499 20.941 36.3499C20.941 36.3499 20.9298 36.3499 20.9298 36.3555C20.9298 36.3555 20.9298 36.3555 20.9243 36.3555C20.9243 36.3555 20.9187 36.3555 20.9131 36.3611C20.9131 36.3611 20.9075 36.3611 20.902 36.3611C20.902 36.3611 20.8964 36.3611 20.8908 36.3611C20.8908 36.3611 20.8853 36.3611 20.8797 36.3611H20.8685C20.8685 36.3611 20.863 36.3611 20.8574 36.3611H20.8462C20.8462 36.3611 20.8407 36.3611 20.8351 36.3611H20.8128C20.8128 36.3611 20.8072 36.3611 20.8017 36.3611H20.7905C20.7905 36.3611 20.785 36.3611 20.7794 36.3611C20.7794 36.3611 20.7738 36.3611 20.7682 36.3611C20.7682 36.3611 20.7627 36.3611 20.7571 36.3611H20.7459H20.7404C20.7404 36.3611 20.7292 36.3611 20.7292 36.3555C20.7292 36.3555 20.7292 36.3555 20.7237 36.3555C20.7237 36.3555 20.7125 36.3555 20.7125 36.3499C20.7125 36.3499 20.7125 36.3499 20.7069 36.3499C20.7069 36.3499 20.7014 36.3499 20.6958 36.3444C20.6958 36.3444 20.6958 36.3444 20.6902 36.3444C20.6847 36.3444 20.6791 36.3332 20.6735 36.3276L19.4532 35.124L18.2328 36.3276C18.2328 36.3276 18.2161 36.3444 18.205 36.3555C18.1994 36.3555 18.1883 36.3667 18.1827 36.3722C18.1771 36.3722 18.1715 36.3778 18.1604 36.3834C18.1325 36.3945 18.1047 36.4001 18.0768 36.4001C18.0211 36.4001 17.9598 36.3778 17.9152 36.3332C17.8706 36.2886 17.8539 36.2329 17.8539 36.1772C17.8539 36.1716 17.8539 36.1605 17.8539 36.1549C17.8539 36.1048 17.8818 36.0546 17.9208 36.0212L18.5783 35.3748L19.2303 34.7284V32.806C19.169 32.7892 19.1077 32.7725 19.052 32.7447C18.974 32.7112 18.9015 32.6667 18.8402 32.6165C18.8235 32.5998 18.8012 32.5831 18.7845 32.5664C18.7678 32.5496 18.7511 32.5329 18.7343 32.5162L18.3053 32.7614L17.5865 33.1737L17.0682 33.4746L16.9902 33.7811L16.6057 35.2578C16.5946 35.2968 16.5779 35.3302 16.55 35.3525C16.5444 35.3636 16.5333 35.3692 16.5221 35.3748C16.4999 35.3915 16.4831 35.4026 16.4608 35.4082C16.4497 35.4082 16.4386 35.4138 16.4274 35.4194C16.4163 35.4194 16.3996 35.4194 16.3884 35.4194C16.3773 35.4194 16.3717 35.4194 16.3605 35.4194C16.3494 35.4194 16.3383 35.4194 16.3271 35.4138C16.3215 35.4138 16.3104 35.4138 16.3048 35.4082C16.2825 35.4026 16.2658 35.3915 16.2491 35.3748C16.2435 35.3748 16.238 35.3636 16.2324 35.3636C16.2212 35.3525 16.2101 35.3414 16.2045 35.3302C16.1934 35.3191 16.1878 35.3079 16.1822 35.2912C16.1822 35.2856 16.1822 35.2801 16.1767 35.2745C16.1655 35.2466 16.1599 35.2188 16.1655 35.1909C16.1655 35.1798 16.1655 35.1742 16.1655 35.163C16.1655 35.1575 16.1655 35.1519 16.1655 35.1408L16.6002 33.4858L15.3965 33.157L14.9452 33.0344C14.9452 33.0344 14.9173 33.0233 14.9006 33.0177C14.8393 32.9898 14.8003 32.9341 14.7836 32.8673C14.7836 32.8617 14.7836 32.8505 14.7836 32.845C14.7836 32.8227 14.7836 32.8004 14.7836 32.7781C14.7836 32.7725 14.7836 32.7614 14.7836 32.7558C14.7836 32.7447 14.7892 32.7335 14.7947 32.7224C14.7947 32.7224 14.7947 32.7224 14.7947 32.7168C14.7947 32.7057 14.8059 32.7001 14.8114 32.6889C14.817 32.6778 14.8226 32.6722 14.8337 32.6611C14.8393 32.6555 14.8505 32.6444 14.856 32.6388C14.8616 32.6332 14.8727 32.6276 14.8839 32.6221C14.8839 32.6221 14.8839 32.6221 14.8895 32.6221C14.9006 32.6221 14.9062 32.6109 14.9173 32.6109C14.9173 32.6109 14.9396 32.6054 14.9452 32.6054C14.9452 32.6054 14.9452 32.6054 14.9508 32.6054C14.9619 32.6054 14.973 32.6054 14.9842 32.6054H14.9898C14.9898 32.6054 15.0009 32.6054 15.0121 32.6054H15.0176C15.0288 32.6054 15.0343 32.6054 15.0455 32.6109L15.9315 32.8561L16.8175 33.1013L18.4836 32.1429C18.4557 32.0537 18.439 31.9534 18.439 31.8587C18.439 31.7639 18.4557 31.6636 18.4836 31.5689L16.8175 30.6105L15.9315 30.8557L15.0455 31.1008C15.0455 31.1008 15.0288 31.1008 15.0176 31.1064C15.0176 31.1064 15.0176 31.1064 15.0121 31.1064C15.0065 31.1064 15.0009 31.1064 14.9898 31.1064H14.9842C14.9842 31.1064 14.9619 31.1064 14.9508 31.1064C14.9508 31.1064 14.9508 31.1064 14.9452 31.1064C14.934 31.1064 14.9229 31.1064 14.9118 31.1008C14.9006 31.1008 14.8895 31.0953 14.8839 31.0897C14.8727 31.0841 14.8672 31.0786 14.856 31.073C14.8449 31.0674 14.8393 31.0563 14.8337 31.0507C14.8337 31.0507 14.817 31.034 14.8114 31.0284C14.8059 31.0173 14.8003 31.0117 14.7947 31.0005C14.7947 31.0005 14.7947 31.0005 14.7947 30.995C14.7947 30.9838 14.7836 30.9727 14.7836 30.9615C14.7836 30.9504 14.7836 30.9448 14.7836 30.9392C14.7836 30.917 14.7836 30.8947 14.7836 30.8724C14.7836 30.8668 14.7836 30.8557 14.7836 30.8501C14.8003 30.7888 14.8393 30.7331 14.9006 30.6996C14.9118 30.6941 14.9285 30.6885 14.9452 30.6829L15.3965 30.5603L16.5946 30.2316L16.1599 28.5766C16.1599 28.5766 16.1599 28.5655 16.1599 28.5599C16.1599 28.5487 16.1599 28.5376 16.1599 28.532C16.1599 28.5042 16.1599 28.4763 16.1711 28.4484C16.1711 28.4429 16.1711 28.4373 16.1767 28.4317C16.1822 28.4206 16.1934 28.4094 16.199 28.3927C16.2101 28.3816 16.2157 28.3704 16.2268 28.3593C16.2268 28.3593 16.238 28.3481 16.2435 28.3426C16.2602 28.3314 16.2825 28.3203 16.2993 28.3091C16.3048 28.3091 16.3104 28.3091 16.3215 28.3036C16.3327 28.3036 16.3438 28.3036 16.355 28.3036C16.3661 28.3036 16.3717 28.3036 16.3828 28.3036C16.394 28.3036 16.4051 28.3036 16.4163 28.3036C16.4274 28.3036 16.4386 28.3091 16.4497 28.3147C16.472 28.3203 16.4943 28.3314 16.511 28.3481C16.5221 28.3537 16.5277 28.3648 16.5389 28.3704C16.5667 28.3983 16.5834 28.4317 16.5946 28.4707L16.9791 29.9474L17.0571 30.2539L17.5753 30.5548L18.2941 30.9671L18.7232 31.2123C18.7232 31.2123 18.7566 31.1789 18.7733 31.1621C18.7901 31.1454 18.8124 31.1287 18.8291 31.1176C18.8959 31.0674 18.9684 31.0228 19.0408 30.9894C19.0965 30.9615 19.1578 30.9448 19.2191 30.9281V29.6019V29.0001L18.5672 28.3537L17.9096 27.7073C17.8706 27.6683 17.8484 27.6182 17.8428 27.568C17.8428 27.5624 17.8428 27.5513 17.8428 27.5457C17.8428 27.49 17.8651 27.4287 17.9041 27.3841C17.9487 27.3395 18.0044 27.3173 18.0657 27.3173C18.0935 27.3173 18.1214 27.3228 18.1493 27.334C18.1548 27.334 18.166 27.334 18.1715 27.3451C18.1827 27.3451 18.1883 27.3563 18.1938 27.3618C18.205 27.3674 18.2105 27.373 18.2217 27.3841L19.442 28.5877L20.6624 27.3841C20.6624 27.3841 20.6735 27.373 20.6791 27.3674C20.6791 27.3674 20.6791 27.3674 20.6846 27.3674C20.6846 27.3674 20.6902 27.3618 20.6958 27.3618C20.6958 27.3618 20.6958 27.3618 20.7014 27.3618C20.7014 27.3618 20.7069 27.3618 20.7125 27.3563H20.7181C20.7181 27.3563 20.7237 27.3563 20.7292 27.3563C20.7292 27.3563 20.7292 27.3563 20.7348 27.3563C20.7348 27.3563 20.7404 27.3563 20.7459 27.3563C20.7459 27.3563 20.7515 27.3563 20.7571 27.3563C20.7571 27.3563 20.7627 27.3563 20.7682 27.3563C20.7682 27.3563 20.7738 27.3563 20.7794 27.3563C20.7794 27.3563 20.785 27.3563 20.7905 27.3563C20.7905 27.3563 20.7961 27.3563 20.8017 27.3563C20.8017 27.3563 20.8072 27.3563 20.8128 27.3563H20.824C20.824 27.3563 20.8295 27.3563 20.8351 27.3563C20.8351 27.3563 20.8407 27.3563 20.8462 27.3563C20.8462 27.3563 20.8518 27.3563 20.8574 27.3563C20.8574 27.3563 20.863 27.3563 20.8685 27.3563C20.8685 27.3563 20.8741 27.3563 20.8797 27.3563C20.8797 27.3563 20.8853 27.3563 20.8908 27.3563C20.8908 27.3563 20.8964 27.3563 20.902 27.3563C20.902 27.3563 20.9075 27.3563 20.9131 27.3563H20.9187C20.9187 27.3563 20.9243 27.3563 20.9298 27.3618C20.9298 27.3618 20.9298 27.3618 20.9354 27.3618C20.9354 27.3618 20.9465 27.3674 20.9465 27.373C20.9465 27.373 20.9465 27.373 20.9521 27.373C20.9577 27.373 20.9633 27.3841 20.9688 27.3897C20.9744 27.3953 20.98 27.4064 20.9856 27.412C20.9911 27.4176 20.9967 27.4287 21.0023 27.4343C21.019 27.4621 21.0246 27.49 21.0301 27.5234C21.0301 27.5401 21.0301 27.5513 21.0301 27.568C21.0301 27.6182 21.0023 27.6683 20.9633 27.7073L19.6593 28.9889V29.0001L19.6538 30.6718C19.6426 30.7164 19.6315 30.7609 19.6203 30.7999C19.4699 31.3962 19.4476 31.959 19.5479 32.4661C19.5758 32.5942 19.6092 32.7224 19.6538 32.845V34.7618L19.6593 34.7674L20.9577 36.0546C20.9967 36.0936 21.019 36.1382 21.0246 36.1883C21.0246 36.1995 21.0246 36.2162 21.0246 36.2329M21.3255 34.5891C21.3255 34.5891 21.3255 34.6114 21.3255 34.617C21.3255 34.617 21.3255 34.617 21.3255 34.6225C21.3255 34.6337 21.3255 34.6392 21.3255 34.6448C21.3255 34.6448 21.3255 34.6448 21.3255 34.6504C21.3255 34.6615 21.3255 34.6671 21.3199 34.6783C21.3199 34.6838 21.3143 34.695 21.3087 34.7005C21.3087 34.7005 21.3087 34.7005 21.3087 34.7061C21.3087 34.7117 21.3032 34.7228 21.2976 34.7284C21.292 34.7395 21.2865 34.7451 21.2809 34.7507C21.2809 34.7507 21.2809 34.7507 21.2809 34.7563C21.2809 34.7618 21.2697 34.7674 21.2642 34.773C21.2586 34.7786 21.2474 34.7841 21.2419 34.7897C21.2363 34.7897 21.2307 34.8008 21.2196 34.8064C21.2196 34.8064 21.2196 34.8064 21.214 34.8064C21.2084 34.8064 21.1973 34.8176 21.1862 34.8176C21.1806 34.8176 21.1694 34.8231 21.1639 34.8287C21.1639 34.8287 21.1639 34.8287 21.1583 34.8287C21.1527 34.8287 21.1416 34.8287 21.136 34.8343C21.1249 34.8343 21.1193 34.8343 21.1081 34.8343C21.1081 34.8343 21.1081 34.8343 21.1026 34.8343C21.097 34.8343 21.0859 34.8343 21.0803 34.8343H21.0524C21.0524 34.8343 21.0524 34.8343 21.0468 34.8343C21.0413 34.8343 21.0301 34.8343 21.0246 34.8343C21.019 34.8343 21.0134 34.8343 21.0023 34.8343C21.0023 34.8343 20.9967 34.8343 20.9911 34.8343C20.9911 34.8343 20.98 34.8343 20.9744 34.8287C20.9744 34.8287 20.9688 34.8287 20.9633 34.8287C20.9633 34.8287 20.9521 34.8287 20.9465 34.8231C20.9465 34.8231 20.941 34.8231 20.9354 34.8231C20.9354 34.8231 20.9243 34.8176 20.9243 34.812C20.9243 34.812 20.9187 34.812 20.9131 34.812C20.9075 34.812 20.902 34.8064 20.8964 34.8008C20.8964 34.8008 20.8964 34.8008 20.8908 34.7953C20.8853 34.7897 20.8741 34.7841 20.8685 34.773L20.4785 34.3662L20.0773 33.9539L19.8934 33.7644C19.9212 33.6474 19.9714 33.5415 20.0383 33.4523C20.0717 33.4969 20.0996 33.5415 20.133 33.5805C20.4172 33.9483 20.8017 34.2659 21.2809 34.5167C21.3032 34.5278 21.331 34.5445 21.3533 34.5557V34.5668V34.5724L21.3255 34.5891ZM25.1313 36.9796C25.1313 36.9796 25.1202 36.9517 25.0979 36.896C25.0979 36.896 25.0812 36.857 25.07 36.8347C25.07 36.8347 25.07 36.8292 25.0645 36.8236C25.0645 36.8236 25.0645 36.8124 25.0589 36.8069C25.0589 36.8013 25.0478 36.7901 25.0422 36.779C25.0422 36.7679 25.031 36.7567 25.0255 36.7511C25.0255 36.7511 25.0255 36.74 25.0143 36.7344C25.0143 36.7289 25.0087 36.7177 25.0032 36.7121C24.9809 36.6731 24.953 36.6341 24.9252 36.5895C24.914 36.5728 24.9029 36.5505 24.8862 36.5338C24.8862 36.5283 24.8806 36.5227 24.875 36.5171C24.875 36.5171 24.8694 36.506 24.8639 36.5004C24.836 36.4614 24.8081 36.4224 24.7803 36.3834C24.7691 36.3722 24.7636 36.3611 24.7524 36.3499C24.7524 36.3499 24.7524 36.3444 24.7469 36.3388C24.7357 36.3277 24.7301 36.3165 24.719 36.2998C24.7078 36.2886 24.6967 36.2719 24.6856 36.2608C24.6465 36.2106 24.602 36.1605 24.5518 36.1048C24.5351 36.088 24.5184 36.0713 24.5072 36.0546C24.485 36.0323 24.4571 36.0045 24.4348 35.9766C24.4237 35.9655 24.4181 35.9599 24.4069 35.9487C24.3902 35.932 24.3735 35.9097 24.3512 35.893L24.2955 35.8373C23.7661 35.3191 22.9191 34.656 21.5539 33.9371C18.3889 32.2654 21.5985 28.3258 21.5985 28.3258C21.5985 28.3258 21.5985 28.3258 21.5985 28.337C21.5929 28.3704 21.5651 28.493 21.5428 28.6825C21.5428 28.7103 21.5372 28.7438 21.5316 28.7772C21.5149 28.8831 21.5038 29.0001 21.4926 29.1338C21.4815 29.262 21.4759 29.4013 21.4703 29.5517C21.4703 29.6298 21.4703 29.7133 21.4703 29.7969C21.4703 29.8304 21.4703 29.8638 21.4703 29.8972C21.4703 29.9474 21.4703 30.0031 21.4703 30.0533C21.4703 30.07 21.4703 30.0923 21.4703 30.109C21.4703 30.1591 21.4703 30.2148 21.4815 30.2706C21.4815 30.3096 21.4815 30.343 21.4871 30.382C21.4871 30.421 21.4926 30.46 21.4982 30.4935C21.5038 30.5659 21.5149 30.6439 21.5205 30.7219C21.5261 30.7721 21.5316 30.8222 21.5428 30.8724C21.5428 30.8779 21.5428 30.8835 21.5428 30.8947C21.5651 31.0284 21.5874 31.1677 21.6208 31.307C21.6319 31.346 21.6375 31.385 21.6487 31.424C21.6598 31.463 21.6709 31.502 21.6765 31.5411C21.6821 31.5633 21.6877 31.5912 21.6988 31.6135C21.7099 31.6469 21.7211 31.6859 21.7267 31.7194C21.7267 31.7417 21.7378 31.7584 21.7434 31.7807C21.7601 31.8364 21.7768 31.8865 21.7991 31.9423C21.8047 31.9645 21.8158 31.9924 21.827 32.0203C22.1 32.767 22.5681 33.4914 23.3426 34.0374C25.9449 35.8707 25.1313 36.9796 25.1313 36.9796ZM25.9003 36.3165C25.8669 36.3499 25.8279 36.3778 25.7944 36.4112C25.8223 36.3667 25.8557 36.3054 25.8892 36.2162C26.1288 35.5364 26.2959 33.4746 24.6465 30.0867C24.5574 30.1703 24.3289 30.4266 24.1116 30.8167C24.0726 30.8947 24.028 30.9727 23.9946 31.0563C23.7996 31.4798 23.6491 32.0203 23.6658 32.6444C23.6658 32.7892 23.6881 32.9397 23.7104 33.0957C23.7271 33.1849 23.7438 33.274 23.7661 33.3632C23.7661 33.3632 23.6881 33.2796 23.56 33.1347C23.4764 33.0344 23.3761 32.9063 23.2646 32.7558C22.9136 32.271 22.4622 31.5243 22.2393 30.6383C22.1892 30.4433 22.1502 30.2427 22.1279 30.0365C22.0666 29.5239 22.0944 28.9722 22.256 28.4039C22.5625 27.3507 23.3482 26.2418 24.9419 25.1998C24.9865 25.9186 25.0589 27.9525 25.3709 28.9555C25.5604 28.649 25.8947 27.2337 25.9282 26.8993C26.4018 28.4484 29.7341 32.9453 25.9003 36.3276" fill="#2954A4"/>
<path d="M23.1136 4.8777C23.1136 4.8777 23.0913 4.86656 23.0634 4.86099C23.0467 4.86099 23.03 4.84984 23.0133 4.84427C22.991 4.84427 22.9743 4.83313 22.952 4.82755C22.874 4.80526 22.7737 4.7774 22.6678 4.75511C22.6399 4.74954 22.6065 4.7384 22.5786 4.73282C22.5508 4.72725 22.5173 4.71611 22.4895 4.71053C22.4616 4.70496 22.4337 4.69382 22.4059 4.68825C22.3502 4.6771 22.3 4.66596 22.2554 4.65481C22.2443 4.65481 22.2331 4.65481 22.222 4.64924C22.1997 4.64924 22.183 4.63809 22.1663 4.63809C22.1607 4.63809 22.1496 4.63809 22.144 4.63809C22.1217 4.63809 22.1106 4.63252 22.105 4.63252C22.0994 4.63252 22.0883 4.63252 22.0771 4.63252C22.0214 4.63252 21.9267 4.64367 21.8152 4.65481C21.7484 4.66038 21.6815 4.67153 21.6146 4.6771C21.4586 4.69939 21.3249 4.72168 21.297 4.7384C21.1744 4.81084 21.2469 4.92228 21.3639 4.99472C21.3973 5.01144 21.4307 5.03373 21.4642 5.04487C21.4865 5.05602 21.5088 5.06159 21.5366 5.06159C21.5589 5.06159 21.5812 5.06716 21.6035 5.06716C21.6481 5.06716 21.7038 5.06716 21.7539 5.06716C21.8319 5.06716 21.91 5.05602 21.988 5.05602C22.0381 5.05602 22.0938 5.05602 22.144 5.05602C22.3056 5.06716 22.4505 5.10059 22.6121 5.11174C22.6678 5.11174 22.7235 5.11174 22.7792 5.11174C22.8294 5.11174 22.8907 5.10059 22.952 5.08945C22.9966 5.07831 23.0356 5.07273 23.0746 5.05602C23.108 5.04487 23.1414 5.02816 23.1581 5.01144C23.1916 4.98358 23.1916 4.95014 23.1414 4.90556C23.1303 4.89442 23.1191 4.88885 23.108 4.8777" fill="#2954A4"/>
<path d="M22.422 5.71904C22.422 5.71904 22.3774 5.70233 22.3551 5.69118C22.3106 5.67446 22.266 5.65775 22.2214 5.64103C22.1545 5.61874 22.0877 5.60202 22.0208 5.59088C21.9762 5.58531 21.9317 5.58531 21.8815 5.59088C21.7868 5.59645 21.6865 5.62431 21.5695 5.68004C21.5583 5.70233 21.5527 5.71904 21.5527 5.73576C21.5527 5.75805 21.5527 5.77476 21.5639 5.79148C21.5639 5.80263 21.575 5.8082 21.5806 5.81934C21.5973 5.8472 21.6252 5.87507 21.6586 5.89736C21.6809 5.91407 21.7088 5.93079 21.7366 5.94193C21.7645 5.95865 21.7979 5.9698 21.8258 5.98094C21.8425 5.98651 21.8592 5.99208 21.8759 5.99766C21.9094 6.0088 21.9428 6.01995 21.9818 6.02552C22.2938 6.09239 22.6616 6.05895 22.7062 5.8082C22.6783 5.80263 22.656 5.79148 22.6282 5.78591C22.5557 5.76362 22.4833 5.73576 22.4164 5.7079" fill="#2954A4"/>
<path d="M27.9227 5.81939C27.8892 5.46834 27.5382 5.3959 27.332 5.23987C26.8249 4.85539 26.3178 4.43189 25.7885 4.08641C25.2257 3.72421 24.5291 3.26728 23.8438 3.27843C24.6294 3.86352 25.5266 4.30373 26.3346 4.87768C26.8528 5.24545 27.2317 5.81382 27.9227 5.81939Z" fill="#2954A4"/>
<path d="M38.1535 15.4762H33.3168C32.9546 14.4007 32.2803 12.6956 31.4946 12.3167C31.0488 12.0994 30.5027 11.8152 30.0235 11.6814C29.3771 11.4976 27.5439 11.3192 27.1594 10.8679C26.8752 10.5335 26.903 9.17948 27.0201 8.7337C27.1426 8.28234 27.789 8.22105 27.75 7.61367C27.8392 7.5078 27.8615 7.61367 27.8782 7.70283C27.9785 8.21548 28.0231 8.60554 28.2515 9.10147C28.3853 9.38566 29.0484 10.4555 29.3604 10.411C29.5332 10.3831 29.8786 9.66427 29.9399 9.48039C30.2464 8.53867 29.9511 7.79198 29.327 7.09545C29.2601 7.01744 28.7475 6.62738 28.8311 6.54936L29.9901 6.49364C30.3746 6.47135 30.8761 5.90298 31.0154 5.55192C31.1157 5.30674 31.294 4.40403 31.2829 4.15328C31.2661 3.73536 30.9318 3.80222 30.6142 3.8468C29.9901 3.92481 29.3493 4.24244 28.8645 4.6325C29.1208 2.70448 28.363 1.28355 26.6133 0.542435C25.3707 0.0186403 23.4315 -0.365848 22.3059 0.564725C21.6651 1.09409 20.4838 2.25313 20.3946 3.11683C20.3667 3.3843 20.4949 3.56819 20.467 3.78551C20.4392 3.99725 20.1829 4.3093 20.1494 4.53219C20.1104 4.79966 20.2497 4.97798 20.2219 5.20087C20.1661 5.63551 19.4362 6.39334 19.4417 6.92271C19.4473 7.38521 20.0881 7.40192 20.0993 7.6471C20.1104 7.79198 19.8819 8.17647 19.8819 8.42722C19.8819 8.62783 19.9823 8.795 19.9823 8.9956C19.9823 9.25192 19.8039 9.4971 19.8262 9.83144C19.8931 10.7342 20.9908 10.9515 21.7041 11.0573L21.7319 11.3638C20.8794 11.531 20.0157 11.1688 19.1798 11.1688C17.7032 11.1688 16.2878 12.0214 15.2402 13.0021C14.7331 13.3476 13.6633 15.3146 13.6633 15.3146C13.6243 15.3201 13.5853 15.3257 13.5407 15.3369C13.5351 15.387 13.5295 15.4372 13.524 15.4873H2.34036C1.04759 15.4873 0 16.3956 0 17.5156C0 18.6357 1.04759 19.5439 2.34036 19.5439H38.1535C39.4463 19.5439 40.4939 18.6357 40.4939 17.5156C40.4939 16.3956 39.4463 15.4873 38.1535 15.4873M29.1542 5.31231C29.1542 5.31231 29.1654 5.30117 29.171 5.29003C29.1821 5.27331 29.1933 5.26216 29.2044 5.24545C29.2044 5.24545 29.2044 5.24545 29.21 5.23987C29.21 5.23987 29.2267 5.22316 29.2323 5.21201C29.2323 5.21201 29.2323 5.21201 29.2378 5.20644C29.249 5.18972 29.2657 5.17858 29.2768 5.16186C29.2824 5.15072 29.2936 5.14515 29.2991 5.13957C29.3047 5.12843 29.3158 5.12286 29.3214 5.11728C29.3381 5.10057 29.3548 5.07828 29.3771 5.06156C29.4329 5.00584 29.4886 4.95569 29.5443 4.90554C29.5722 4.88325 29.6 4.86096 29.6279 4.83867C29.6279 4.83867 29.6335 4.83867 29.639 4.8331C29.639 4.8331 29.6948 4.79409 29.7226 4.7718C29.7226 4.7718 29.7338 4.7718 29.7338 4.76623C29.7449 4.76066 29.7505 4.75509 29.7616 4.74394C29.7616 4.74394 29.7616 4.74394 29.7672 4.74394C29.7839 4.7328 29.8006 4.72165 29.8174 4.71051C29.8229 4.71051 29.8341 4.69936 29.8396 4.69936C29.8564 4.68822 29.8786 4.67707 29.8954 4.66593C29.9121 4.65478 29.9232 4.64921 29.9399 4.63807C29.9622 4.62692 29.9789 4.61578 30.0012 4.60463C30.0012 4.60463 30.0012 4.60463 30.0068 4.60463C30.0458 4.58235 30.0904 4.56006 30.1294 4.54334C30.1294 4.54334 30.1795 4.52105 30.2074 4.5099C30.2241 4.50433 30.2408 4.49876 30.252 4.49319C30.252 4.49319 30.2631 4.49319 30.2631 4.48762C30.2687 4.48762 30.2743 4.48762 30.2799 4.48204C30.2966 4.47647 30.3133 4.4709 30.3356 4.45975C30.3356 4.45975 30.3802 4.44304 30.4024 4.43747C30.4136 4.43747 30.4247 4.43189 30.4359 4.42632C30.4359 4.42632 30.447 4.42632 30.4526 4.42632C30.4805 4.41518 30.5139 4.4096 30.5417 4.39846C30.5417 4.39846 30.5417 4.39846 30.5473 4.39846C30.5863 4.38731 30.6198 4.37617 30.6588 4.3706C30.6755 4.6715 30.6365 4.95569 30.5417 5.20087C30.5417 5.20087 30.5417 5.20644 30.5417 5.21201C30.5362 5.2343 30.525 5.25659 30.5139 5.27331C30.2966 5.76924 29.8396 6.08129 29.171 6.04228C29.2713 5.88626 29.4217 5.76367 29.5722 5.64108C29.7282 5.51849 29.8842 5.40147 30.0068 5.26216C30.174 5.07271 30.2631 4.93897 30.2408 4.87768C30.2408 4.87768 30.2074 4.84424 30.1684 4.84424C30.1294 4.84424 30.0681 4.86096 29.9901 4.88882C29.9399 4.90554 29.8786 4.92783 29.8118 4.96126C29.7839 4.9724 29.7561 4.98912 29.7282 5.00027C29.717 5.00027 29.7059 5.01141 29.7003 5.01698C29.6892 5.02256 29.6836 5.02813 29.6725 5.0337C29.6558 5.04485 29.639 5.05599 29.6223 5.06713C29.5666 5.10614 29.5109 5.14515 29.4552 5.17858C29.444 5.17858 29.4384 5.18972 29.4273 5.1953C29.4217 5.1953 29.4161 5.20644 29.405 5.20644C29.3939 5.21201 29.3827 5.22316 29.3716 5.22873L29.3214 5.25659C29.3214 5.25659 29.2936 5.27331 29.2824 5.27888C29.2768 5.27888 29.2713 5.28445 29.2601 5.29003C29.249 5.2956 29.2378 5.30117 29.2211 5.30674C29.2211 5.30674 29.2155 5.30674 29.21 5.30674C29.1821 5.31789 29.1542 5.32903 29.1264 5.3346L29.1542 5.31231ZM28.4354 7.39078L28.7419 7.94244L28.9202 8.26006C28.9202 8.26006 28.9481 8.26006 28.9592 8.26006C28.9759 8.25448 28.9815 8.23777 28.9815 8.21548C28.9815 8.18762 28.9648 8.14861 28.9536 8.11518C28.9481 8.09846 28.9425 8.08731 28.9425 8.07617C28.9314 8.02602 28.9202 7.97587 28.9035 7.92015C28.8868 7.85885 28.8701 7.80313 28.8533 7.74183C28.8478 7.71397 28.8366 7.68611 28.8311 7.65825C28.8143 7.56909 28.8032 7.47994 28.8088 7.38521C29.249 7.66382 29.5387 8.48852 29.4719 9.06804C29.4607 9.15719 29.444 9.24078 29.4161 9.31322C29.366 9.4581 29.3214 9.57512 29.2545 9.59183C29.2434 9.59183 29.2378 9.59183 29.2267 9.59183C29.1877 9.58069 29.1431 9.54168 29.0818 9.4581C28.6639 8.86743 28.4689 8.14304 28.3073 7.44093L28.4298 7.40192L28.4354 7.39078ZM22.2167 1.46744C22.2167 1.46744 22.2446 1.46744 22.2613 1.46744C22.3003 1.47301 22.356 1.48972 22.4229 1.51201C22.4452 1.52316 22.4731 1.52873 22.5009 1.53988C22.5567 1.56216 22.6124 1.58445 22.6737 1.61232C22.7071 1.62903 22.735 1.64018 22.7684 1.65689C22.8074 1.67361 22.8464 1.6959 22.891 1.71262C23.203 1.86307 23.5541 2.05253 23.816 2.19741C23.8661 2.22527 23.9163 2.25313 23.9664 2.28099C24.011 2.30885 24.05 2.33114 24.089 2.34786C24.1225 2.37015 24.1559 2.38129 24.1782 2.39801C24.2673 2.44816 24.3676 2.50945 24.4735 2.57632C24.546 2.6209 24.6184 2.66548 24.6964 2.71563C24.7744 2.76578 24.8524 2.81593 24.936 2.87165C25.1701 3.02768 25.4264 3.20599 25.6827 3.38988C25.705 3.40659 25.7329 3.42331 25.7551 3.44003C25.822 3.49018 25.8889 3.54033 25.9558 3.59048C26.0115 3.63506 26.0672 3.67406 26.1229 3.71864C26.1229 3.71864 26.1229 3.71864 26.1285 3.72421C26.9476 4.35945 27.7166 5.07828 27.9673 5.65222C27.9896 5.70795 28.0175 5.76367 28.0398 5.81939C28.1122 5.99771 28.1512 6.17045 28.0565 6.30418C28.0175 6.3599 27.9562 6.40448 27.8615 6.44349C27.8559 6.44349 27.8448 6.43234 27.8336 6.4212C27.8002 6.38219 27.7612 6.29861 27.711 6.20388C27.7055 6.18716 27.6999 6.17602 27.6887 6.16487C27.6609 6.10915 27.633 6.059 27.6052 6.01442C27.5773 5.96985 27.5494 5.93084 27.5216 5.90855C27.5216 5.90855 27.5048 5.89183 27.4937 5.88626C27.4937 5.88626 27.4826 5.88069 27.4826 5.87512C27.4826 5.87512 27.477 5.87512 27.4714 5.87512C27.4603 5.86954 27.4547 5.86397 27.4436 5.8584C27.399 5.83054 27.3488 5.80825 27.2987 5.79153C27.2708 5.78039 27.2429 5.77481 27.2151 5.76367C27.1649 5.75253 27.1204 5.74138 27.0646 5.73024C26.9198 5.70237 26.7749 5.68566 26.6523 5.64108C26.5241 5.59093 26.3848 5.51849 26.2399 5.43491C26.2399 5.43491 26.2288 5.43491 26.2232 5.42933C26.1954 5.41262 26.1731 5.3959 26.1452 5.38475L26.0449 5.32346C25.9892 5.29003 25.9335 5.25102 25.8777 5.21201C25.8443 5.1953 25.8164 5.17301 25.7886 5.15072C25.7607 5.134 25.7329 5.11171 25.6994 5.095C25.6827 5.08385 25.6604 5.06713 25.6437 5.05599C25.4208 4.91111 25.2091 4.7718 25.014 4.66593C23.7714 4.0084 22.4786 3.36759 21.0744 3.21156C21.0688 3.1837 21.0633 3.15027 21.0633 3.11126C21.0633 2.59861 21.8545 1.4953 22.2112 1.45629M18.3161 15.4762C18.1155 15.465 17.9149 15.4483 17.7143 15.4372C17.6865 15.4372 17.6642 15.4372 17.6363 15.4372L17.6196 15.4204L17.5304 15.3536C17.5416 15.3424 17.5472 15.3313 17.5583 15.3146C17.6809 15.0861 17.7701 14.3784 17.575 14.3004L16.7949 15.348L15.1455 15.3369H14.644C14.7443 15.1753 14.8557 15.0192 14.9728 14.8576C15.0285 14.7796 15.0898 14.7016 15.1511 14.618C15.2124 14.54 15.2737 14.462 15.335 14.384C15.3405 14.3784 15.3461 14.3673 15.3517 14.3617C15.8755 13.7153 16.494 13.1079 17.185 12.6677L17.2017 12.6566C17.575 12.4226 17.9651 12.2331 18.3774 12.1217C18.8344 11.9935 19.3136 11.9768 19.7984 11.9991C19.7984 11.9991 19.7984 11.9991 19.8039 11.9991C20.4392 12.0269 21.0856 12.1217 21.7041 12.1161C21.6651 12.1941 21.6205 12.4281 21.6205 12.6287C21.6205 12.7012 21.6205 12.7736 21.6372 12.8293C21.6651 12.9575 21.732 13.0244 21.8657 12.9296C21.8657 12.9296 21.8768 12.9185 21.8824 12.9073C21.9103 12.8516 21.9493 12.7179 21.9994 12.5507C22.0106 12.5117 22.0217 12.4727 22.0329 12.4337C22.1443 12.0102 22.2669 11.453 22.2446 11.3248C22.2613 11.3248 22.2725 11.3137 22.2892 11.3081C22.2892 11.3081 22.2948 11.3081 22.3003 11.3081C22.7405 11.1576 23.2198 11.0406 23.6377 10.8122C23.6377 10.8122 23.6377 10.8122 23.6432 10.8122C23.6432 10.8122 23.6488 10.8122 23.6544 10.8066C23.6544 10.8066 23.6544 10.8066 23.66 10.8066C23.7603 10.7509 23.855 10.6896 23.9386 10.6171C23.9943 10.5726 24.1057 10.45 24.2339 10.2995C24.2339 10.2995 24.2395 10.2939 24.2451 10.2884C24.5571 9.9206 24.975 9.37451 25.014 9.24635C25.0308 9.20177 25.0252 9.17948 25.014 9.16277C25.0029 9.15719 24.9917 9.15162 24.9806 9.15162C24.9639 9.15162 24.9416 9.15162 24.9193 9.15162C24.624 9.17948 24.2506 9.62527 23.9609 9.78686C23.4092 10.0878 22.2948 10.3497 21.4533 10.3552C21.2026 10.3552 20.9797 10.3329 20.8014 10.2828C20.6788 10.2494 20.5896 10.1992 20.5172 10.1379C20.4503 9.95403 20.467 9.74228 20.4782 9.55283C20.4838 9.44695 20.4893 9.34108 20.4893 9.23521C20.4893 9.22406 20.4893 9.21292 20.4893 9.20177C20.4893 9.18506 20.4893 9.16834 20.4893 9.15162C20.4893 9.14048 20.4893 9.11262 20.4893 9.11262C20.4893 9.11262 20.4559 8.9343 20.4503 8.8953C20.4503 8.83957 20.4225 8.42723 20.4392 8.38265C20.4503 8.34921 20.5283 7.70283 20.7011 7.6471C20.846 7.66382 21.2193 7.47436 21.4589 7.56352C21.5091 7.51894 21.5481 7.46322 21.5815 7.39635C21.6094 7.3462 21.6316 7.29605 21.6484 7.2459C21.6539 7.21804 21.6651 7.19018 21.6707 7.16789C21.6762 7.14003 21.6818 7.11216 21.6818 7.08987C21.6985 6.91156 21.6484 6.75554 21.5091 6.67195C21.4478 6.63295 21.4032 6.62738 21.3697 6.63295C21.4422 6.75554 21.4255 6.92271 21.2694 7.07873C21.0131 7.39635 20.4392 7.26819 20.0603 7.01744C20.0213 6.97843 20.0324 6.8837 20.0603 6.77225C20.0603 6.68867 20.0826 6.61066 20.1104 6.53822C20.1104 6.52707 20.116 6.5215 20.1216 6.51036C20.1884 6.33204 20.2943 6.16487 20.3946 5.99771C20.3946 5.98656 20.4057 5.98099 20.4113 5.96984C20.5729 5.6968 20.6955 5.42376 20.5506 5.10057C20.6454 5.08385 20.7178 5.06713 20.7735 5.04484C20.8292 5.02256 20.8627 5.00027 20.885 4.9724C20.9017 4.95012 20.9072 4.92783 20.9128 4.90554C20.9128 4.90554 20.9128 4.87768 20.9073 4.86096C20.9073 4.84981 20.9017 4.83867 20.8961 4.82753C20.8961 4.81638 20.8905 4.81081 20.885 4.79966C20.8794 4.78295 20.8682 4.76066 20.8571 4.74394C20.8237 4.68265 20.7847 4.61021 20.7735 4.54334C20.7679 4.48762 20.7902 4.4096 20.8181 4.32602C20.8181 4.32602 20.8181 4.32045 20.8181 4.31488C20.8794 4.14771 20.963 3.9471 20.9184 3.79665C20.9184 3.79665 20.9184 3.79665 20.9295 3.79665C20.9295 3.79665 20.9685 3.79665 21.002 3.79665C21.0187 3.79665 21.0298 3.80222 21.0466 3.8078C21.3976 3.88581 22.3338 4.22572 22.4898 4.28701C22.9244 4.44304 24.2618 4.89439 24.5571 5.12286C24.6017 5.15629 24.6407 5.21201 24.6797 5.27888C24.8301 5.56864 24.897 6.09801 25.092 6.40448C25.1645 6.51593 25.2314 6.59951 25.2926 6.66638C25.3317 6.71096 25.3762 6.74439 25.4097 6.77225C25.432 6.78897 25.4487 6.79454 25.4654 6.80569C25.4765 6.81126 25.4877 6.81683 25.4988 6.82241C25.5211 6.83355 25.5434 6.83912 25.5657 6.84469C25.5657 6.84469 25.5768 6.84469 25.5824 6.84469C25.5824 6.84469 25.5824 6.84469 25.588 6.84469C25.5991 6.84469 25.6047 6.84469 25.6103 6.84469C25.8722 6.82798 26.0505 6.40448 26.2734 6.17045C26.2734 6.17045 26.2789 6.1593 26.2845 6.1593C26.3402 6.10358 26.4015 6.05343 26.4684 6.03671C26.513 6.02557 26.552 6.01442 26.5966 6.00885C26.7526 5.99213 26.9198 6.01442 27.0646 6.08686C27.0758 6.08686 27.0869 6.09801 27.0981 6.10358C27.1148 6.11472 27.1315 6.1203 27.1482 6.13144C27.1705 6.14259 27.1872 6.1593 27.2095 6.17602C27.2485 6.20945 27.2931 6.24846 27.321 6.28747C27.3265 6.29861 27.3377 6.30418 27.3433 6.31533C27.3767 6.36548 27.4045 6.4212 27.4213 6.4825C27.4213 6.4825 27.4213 6.4825 27.4213 6.48807C27.4213 6.49921 27.4213 6.51036 27.4268 6.51593C27.4714 6.73325 27.3934 7.00629 27.2485 7.25704C27.0591 7.59138 26.7526 7.90343 26.4517 8.0093C26.2399 8.08731 26.0282 8.05945 25.861 7.87557C25.7886 7.79198 25.7273 7.68054 25.6771 7.53566L25.4877 7.56909C25.4375 7.71954 25.432 7.87 25.4654 8.00373C25.4654 8.01487 25.471 8.02602 25.4765 8.03716C25.4933 8.09289 25.5211 8.14861 25.549 8.20433C25.5601 8.22662 25.5768 8.24891 25.5936 8.2712C25.6103 8.28792 25.6214 8.31021 25.6437 8.32692C25.6827 8.3715 25.7273 8.40493 25.7774 8.43837C25.9502 8.54981 26.1731 8.58882 26.4127 8.52195C26.357 9.63084 26.0505 11.336 27.3098 11.843C28.4076 12.2832 29.6948 12.2387 30.7479 12.846C30.7814 12.8628 30.8148 12.8851 30.8482 12.9073C31.1993 13.1247 31.489 13.381 31.7175 13.6652C31.7732 13.7376 31.829 13.8101 31.8847 13.8825C31.907 13.9215 31.9348 13.9549 31.9571 13.9939C32.0073 14.072 32.0518 14.15 32.0908 14.228C32.1354 14.306 32.1744 14.3896 32.2079 14.4676C32.2469 14.5512 32.2803 14.6348 32.3137 14.7183C32.3918 14.9301 32.4586 15.153 32.5088 15.3814C32.5143 15.4149 32.5255 15.4483 32.5311 15.4873H18.2994L18.3161 15.4762Z" fill="#2954A4"/>
<path d="M22.2957 8.37149C21.9335 8.59995 21.4933 8.67797 21.0698 8.59438C20.8692 8.55538 20.8024 8.86742 21.003 8.90643C21.5045 9.00673 22.0283 8.90643 22.4685 8.63896C22.6412 8.53309 22.4685 8.26562 22.2957 8.37149Z" fill="#2954A4"/>
<path d="M27.0249 13.225C27.0249 13.225 27.0249 13.2082 27.0249 13.1971C26.9803 13.1971 26.9413 13.1971 26.8968 13.1971C26.5958 13.2138 26.2782 13.264 25.994 13.3643C25.9439 13.381 25.7711 13.4701 25.5705 13.5704C25.5371 13.5872 25.5037 13.6039 25.4702 13.6206C25.4368 13.6373 25.4034 13.654 25.3644 13.6763C25.3142 13.7042 25.2585 13.732 25.2083 13.7543C24.991 13.8713 24.8071 13.9716 24.7793 13.9939C24.718 14.0497 24.7403 14.0998 24.7458 14.1611C24.7458 14.1722 24.7458 14.1778 24.7458 14.189C24.757 14.2001 24.7849 14.2057 24.8294 14.2057C24.8573 14.2057 24.8907 14.2057 24.9242 14.1945C24.9632 14.189 25.0022 14.1778 25.0467 14.1667C25.0913 14.1555 25.1415 14.1444 25.1972 14.1277C25.2474 14.111 25.3031 14.0942 25.3644 14.0775C25.5092 14.0329 25.6708 13.9772 25.8269 13.9159C26.3395 13.7265 26.8633 13.4924 26.9915 13.381C27.0026 13.3698 27.0138 13.3587 27.0193 13.3475C27.0249 13.3364 27.0305 13.3253 27.0305 13.3141C27.0305 13.2974 27.0305 13.2807 27.0305 13.264C27.0305 13.2472 27.0249 13.2305 27.0249 13.2138" fill="#2954A4"/>
</svg>
