<svg width="135" height="22" viewBox="0 0 135 22" fill="none" xmlns="http://www.w3.org/2000/svg">
<path d="M12.872 12.3148C12.872 14.7499 11.7965 16.1318 9.36146 16.1318C6.92636 16.1318 5.85091 14.7443 5.85091 12.3148V0.306488H0V12.3148C0 18.3496 3.32666 21.1859 9.36146 21.1859C15.3963 21.1859 18.7229 18.3496 18.7229 12.3148V0.306488H12.872V12.3148Z" fill="#2954A4"/>
<path d="M43.8492 10.2865C46.2843 9.42275 47.1759 7.70092 47.1759 5.5723C47.1759 1.84444 44.4956 0.306488 39.3524 0.306488H28.9434V20.8794H39.3524C45.2312 20.8794 47.7889 19.0294 47.7889 15.3071C47.7889 12.7215 46.5574 11.1167 43.8437 10.2865M34.7998 4.86462H38.745C40.7455 4.86462 41.2693 5.44971 41.2693 6.52516C41.2693 7.60061 40.7455 8.19128 38.745 8.19128H34.7998V4.86462ZM38.7395 16.3212H34.7943V12.3816H38.7395C41.0798 12.3816 41.8767 12.9667 41.8767 14.3542C41.8767 15.7417 41.0742 16.3268 38.7395 16.3268" fill="#2954A4"/>
<path d="M56.0181 0.306488L48.3506 20.8794H54.6974L55.6503 17.8926H62.8553L63.8081 20.8794H70.155L62.4875 0.306488H56.0236H56.0181ZM57.127 13.1506L59.25 6.37471L61.3786 13.1506H57.127Z" fill="#2954A4"/>
<path d="M80.9945 13.0559H84.8116V14.9059C83.8587 15.7361 82.6885 16.1373 81.301 16.1373C78.1917 16.1373 76.0018 13.9196 76.0018 10.5929C76.0018 7.26626 78.1861 5.04849 81.301 5.04849C83.0229 5.04849 84.9954 5.47756 87.1185 6.55858L89.0576 2.18434C86.5947 0.612951 83.9757 0 81.2954 0C74.553 0 70.084 4.43554 70.084 10.5929C70.084 16.7503 74.5195 21.1858 81.2954 21.1858C85.4858 21.1858 88.7177 19.5253 90.6569 16.7837V8.6872H80.989V13.0614L80.9945 13.0559Z" fill="#2954A4"/>
<path d="M106.37 11.947L99.6554 0.306488H93.498V20.8794H99.349V9.23887L106.064 20.8794H112.221V0.306488H106.37V11.947Z" fill="#2954A4"/>
<path d="M128.542 0.306488V12.3148C128.542 14.7499 127.466 16.1318 125.031 16.1318C122.596 16.1318 121.521 14.7443 121.521 12.3148V0.306488H115.67V12.3148C115.67 18.3496 118.997 21.1859 125.031 21.1859C131.066 21.1859 134.393 18.3551 134.393 12.3148V0.306488H128.542Z" fill="#2954A4"/>
</svg>
